<svg xmlns="http://www.w3.org/2000/svg" viewBox="-3 -3 30 30"><rect x="-3" y="-3" width="30" height="30" fill="#0A0204"/><path fill="#C9A961" d="M12 9.6c-.7-.9-1-2-.8-3.1-.4.5-.6 1.1-.7 1.8-.6-.6-1-1.4-1.1-2.3-.5 1-.6 2.1-.4 3.1-1.3-1-3-1.3-4.6-.8.9.2 1.5.8 1.8 1.7-1-.2-2 0-2.9.6 1.2.1 2 .7 2.4 1.8.6-.3 1.3-.4 2-.2 1 .3 1.8 1 2.2 2 .3-.7.8-1.2 1.4-1.5.6.3 1.1.8 1.4 1.5.4-1 1.2-1.7 2.2-2 .7-.2 1.4-.1 2 .2.4-1.1 1.2-1.7 2.4-1.8-.9-.6-1.9-.8-2.9-.6.3-.9.9-1.5 1.8-1.7-1.6-.5-3.3-.2-4.6.8.2-1 .1-2.1-.4-3.1-.1.9-.5 1.7-1.1 2.3-.1-.7-.3-1.3-.7-1.8.2 1.1-.1 2.2-.8 3.1z"/></svg>